<svg width="26" height="26" viewBox="0 0 26 26" fill="none" xmlns="http://www.w3.org/2000/svg">
<path d="M2.88889 26C2.09444 26 1.41459 25.7174 0.849333 25.1521C0.284074 24.5868 0.000962963 23.9065 0 23.1111V2.88889C0 2.09444 0.283111 1.41459 0.849333 0.849333C1.41556 0.284074 2.09541 0.000962963 2.88889 0H23.1111C23.9056 0 24.5859 0.283111 25.1521 0.849333C25.7183 1.41556 26.001 2.09541 26 2.88889V23.1111C26 23.9056 25.7174 24.5859 25.1521 25.1521C24.5868 25.7183 23.9065 26.001 23.1111 26H2.88889ZM2.88889 23.1111H23.1111V2.88889H2.88889V23.1111ZM4.33333 20.2222H21.6667L16.25 13L11.9167 18.7778L8.66667 14.4444L4.33333 20.2222Z" fill="#E9B869"/>
</svg>
