<?xml version="1.0" encoding="UTF-8"?>
<svg version="1.1" xmlns="http://www.w3.org/2000/svg" width="512" height="512">
<path d="M0 0 C1.30048109 -0.13697356 1.30048109 -0.13697356 2.62723452 -0.27671427 C5.53120669 -0.57706296 8.43628683 -0.86365854 11.3419342 -1.14732361 C12.36245251 -1.24864782 13.38297081 -1.34997204 14.43441391 -1.45436668 C35.03515872 -3.47659477 55.66300847 -4.6958358 76.3384161 -5.64930058 C89.44176596 -6.26994771 102.44886255 -7.11320016 115.4879303 -8.5955658 C175.4164274 -15.24838465 221.66989779 -7.41178604 269.00448418 30.22916317 C317.16155636 69.21103499 355.29585902 114.82450949 361.97895372 177.98880732 C365.82580106 217.69533344 363.4400289 257.82332133 360.66115588 297.51656371 C359.65526963 312.05799947 359.00006083 326.58728527 358.56556702 341.15663147 C358.53446275 342.19648236 358.50335848 343.23633325 358.47131165 344.30769478 C358.31667119 349.53124222 358.1671269 354.75492222 358.01949346 359.97867179 C357.11988797 391.5053965 355.86324727 423.00549645 353.90818465 454.48516798 C353.75864497 456.9228378 353.61527793 459.36079997 353.47351074 461.79893303 C353.25314671 465.56305523 353.01437316 469.32554838 352.76007096 473.08752669 C352.6283298 475.08335081 352.51180085 477.08016133 352.39590234 479.07696807 C351.69006571 488.8696399 349.19882036 497.79981577 342.28749084 505.09510803 C335.86353981 510.25806127 329.69788488 513.34074094 321.32690716 513.35237694 C320.15009024 513.35882583 318.97327333 513.36527472 317.7607953 513.37191904 C316.47705279 513.36882183 315.19331029 513.36572463 313.8706665 513.36253357 C312.48596697 513.36627169 311.10126954 513.37087386 309.71657544 513.37626421 C305.91655399 513.38848965 302.11662062 513.38823429 298.31658399 513.38587546 C294.21626072 513.38546718 290.11596564 513.39650751 286.01565552 513.4059906 C277.98427611 513.42259897 269.95292607 513.42810007 261.92153092 513.42921536 C255.3928563 513.43016589 248.86419135 513.43427645 242.33551979 513.44061661 C223.82314519 513.45822842 205.31079377 513.46745555 186.79841074 513.46595566 C185.80053715 513.46587575 184.80266357 513.46579583 183.77455139 513.4657135 C182.77545863 513.46563174 181.77636587 513.46554998 180.74699757 513.46546574 C164.55477036 513.46465281 148.36263617 513.48379233 132.17043587 513.51199023 C115.54206335 513.5407191 98.91373619 513.55453053 82.28533822 513.55280268 C72.95068548 513.55213879 63.61613025 513.55763073 54.28149986 513.57915878 C46.33391468 513.59737058 38.38647122 513.60171792 30.43887421 513.58813994 C26.38505989 513.58161032 22.33151748 513.58149271 18.27772903 513.59884644 C14.5635323 513.61458269 10.84982292 513.6117083 7.13563804 513.59427817 C5.16221633 513.58976051 3.18877947 513.60486127 1.21541661 513.62075746 C-6.00007604 513.5647361 -11.43882023 512.7401325 -17.71250916 509.09510803 C-18.36608282 508.71684163 -19.01965649 508.33857524 -19.69303542 507.94884622 C-26.62058251 503.72310657 -30.49598683 496.71433573 -32.71250916 489.09510803 C-32.95301819 486.24760437 -32.95301819 486.24760437 -32.93955994 483.27333069 C-32.93940887 482.15262177 -32.93925781 481.03191284 -32.93910217 479.87724304 C-32.9287796 478.68327911 -32.91845703 477.48931519 -32.90782166 476.25917053 C-32.90499176 475.0246817 -32.90216187 473.79019287 -32.89924622 472.51829529 C-32.88807438 468.58546654 -32.86297479 464.65286766 -32.83750916 460.72010803 C-32.82634741 458.04953845 -32.81835034 455.37897102 -32.81016541 452.70838928 C-32.7881448 446.17055078 -32.75469675 439.63284583 -32.71250916 433.09510803 C-33.3757016 433.10399048 -34.03889404 433.11287292 -34.72218323 433.12202454 C-41.63277049 433.21060759 -48.54319611 433.27088819 -55.45420837 433.31483459 C-58.03240003 433.33493366 -60.6105462 433.36221744 -63.18858337 433.39686584 C-66.89719376 433.4454565 -70.60520071 433.46809461 -74.31407166 433.48573303 C-76.03939621 433.51670074 -76.03939621 433.51670074 -77.79957581 433.54829407 C-83.9032266 433.55000048 -88.06872294 433.50528496 -92.71250916 429.09510803 C-96.28042201 424.56371676 -97.21354439 421.62589372 -97.22044373 415.88417053 C-97.22980367 414.82927429 -97.22980367 414.82927429 -97.2393527 413.75306702 C-97.25524349 411.40840118 -97.24269479 409.06478065 -97.23008728 406.72010803 C-97.23551017 405.03439225 -97.24263377 403.34868121 -97.25132751 401.66297913 C-97.26954398 397.0927109 -97.2625003 392.52280436 -97.24981117 387.95252991 C-97.23967482 383.1667128 -97.24907862 378.38092638 -97.25535583 373.59510803 C-97.26263038 365.55859322 -97.25304958 357.52222551 -97.23399353 349.48573303 C-97.21222515 340.19819856 -97.21927666 330.91101534 -97.24129915 321.62348938 C-97.25945863 313.64539079 -97.26200879 305.66739786 -97.25154448 297.68928528 C-97.24531256 292.92606347 -97.24446562 288.1630067 -97.25769043 283.39979553 C-97.26925628 278.92137736 -97.26120988 274.44341149 -97.2381134 269.96504211 C-97.23283022 268.32275645 -97.23433343 266.68043265 -97.24316406 265.03816223 C-97.25411928 262.79361178 -97.24035849 260.55050438 -97.22044373 258.30604553 C-97.21893562 257.05098206 -97.21742752 255.79591858 -97.21587372 254.50282288 C-96.45219227 249.33279544 -93.95945705 246.27932724 -90.2374115 242.74452209 C-84.96336843 240.27662938 -80.06415857 240.60127518 -74.31407166 240.70448303 C-73.12397491 240.71014282 -71.93387817 240.71580261 -70.7077179 240.72163391 C-66.91723429 240.74397352 -63.12770571 240.79416841 -59.33750916 240.84510803 C-56.76330408 240.86517602 -54.18908415 240.88342626 -51.61485291 240.89979553 C-45.31374737 240.94383059 -39.01319651 241.01071998 -32.71250916 241.09510803 C-32.71619633 239.99019799 -32.7198835 238.88528795 -32.7236824 237.74689579 C-32.81250121 210.85553245 -32.87822198 183.96418815 -32.91975784 157.07270908 C-32.94037843 144.06815946 -32.96848962 131.06370677 -33.01426697 118.05921936 C-33.05414989 106.72381984 -33.07994562 95.38849053 -33.08886313 84.0530228 C-33.09407536 78.05159275 -33.10631591 72.05036353 -33.13542938 66.04899788 C-33.16262123 60.39785358 -33.1709464 54.74699246 -33.16493988 49.09578896 C-33.16603842 47.02419241 -33.17396964 44.95258618 -33.18933105 42.8810463 C-33.20931778 40.04621739 -33.2044166 37.21244893 -33.19352722 34.37759399 C-33.20517859 33.56336474 -33.21682995 32.74913548 -33.22883439 31.9102326 C-33.14150962 23.4637859 -29.54370949 15.25026394 -23.71250916 9.09510803 C-16.34884712 3.17690558 -9.26720683 0.93313051 0 0 Z " fill="#E1E4E6" transform="translate(128.71250915527344,-1.0951080322265625)"/>
<path d="M0 0 C1.9029279 -0.01564648 1.9029279 -0.01564648 3.84429878 -0.03160906 C5.24457522 -0.0229616 6.64484937 -0.013935 8.04512119 -0.00457001 C9.53849459 -0.00918002 11.03186346 -0.01553361 12.52522284 -0.02347898 C16.62564576 -0.04018207 20.72569645 -0.03192159 24.82612073 -0.01953411 C29.24952907 -0.01048984 33.67287307 -0.0244503 38.09626865 -0.0354538 C46.76068805 -0.05325071 55.42496894 -0.04939369 64.08939379 -0.03780323 C71.13106021 -0.02877321 78.17268778 -0.02754305 85.21435833 -0.0318985 C86.2162051 -0.03251143 87.21805187 -0.03312436 88.25025763 -0.03375587 C90.28544232 -0.03503476 92.320627 -0.03633161 94.35581166 -0.03764623 C113.44515324 -0.04905562 132.53441802 -0.03593301 151.623747 -0.01444477 C168.00460508 0.0034238 184.38534976 0.00032478 200.76620579 -0.01811981 C219.7852398 -0.0395249 238.80420646 -0.04795407 257.82325083 -0.03567076 C259.85129455 -0.03439655 261.87933827 -0.03313907 263.90738201 -0.0318985 C264.90523502 -0.0312814 265.90308802 -0.03066429 266.931179 -0.03002849 C273.96418082 -0.02657431 280.99713994 -0.03240548 288.03013515 -0.04181671 C296.60141522 -0.05303417 305.17254875 -0.05000208 313.74381202 -0.02869374 C318.11735342 -0.01817949 322.49065049 -0.01406779 326.8641901 -0.02729034 C330.86818648 -0.03921257 334.87171215 -0.03265475 338.87566585 -0.01138014 C340.32377978 -0.00691329 341.77193351 -0.00918228 343.22002184 -0.01888329 C356.70001054 -0.10225821 356.70001054 -0.10225821 362.62777805 4.50336456 C367.08308545 9.31040676 367.75236515 12.7116375 367.77494907 19.15026093 C367.77862576 19.82913292 367.78230245 20.50800491 367.78609055 21.20744878 C367.79712314 23.48732873 367.80097052 25.76716309 367.80478001 28.04706573 C367.81104504 29.67982884 367.81769187 31.31259053 367.82469273 32.94535065 C367.84573272 38.31233477 367.85609578 43.67931918 367.8660593 49.04633331 C367.87010703 50.89451678 367.87422396 52.7427001 367.87840939 54.59088326 C367.89746175 63.27482141 367.91169209 71.95875106 367.92002136 80.6427061 C367.92979117 90.66291555 367.9561038 100.68290396 367.99652225 110.70303553 C368.02669788 118.45008028 368.04149165 126.19706172 368.04480237 133.9441641 C368.04715142 138.57004274 368.05609281 143.19568524 368.08126354 147.82150078 C368.1045743 152.1758962 368.10876549 156.52990051 368.09850216 160.88434219 C368.0980074 162.47904195 368.10431022 164.07376115 368.1180582 165.66840172 C368.24984677 181.8662404 368.24984677 181.8662404 363.62777805 187.50336456 C357.07438474 193.69379857 349.48622226 193.2072793 340.96319675 193.13155365 C339.46738209 193.13660274 337.97157348 193.14383437 336.4757787 193.15305179 C332.37786299 193.17194936 328.28054552 193.15975476 324.18264508 193.14232886 C319.75860326 193.12894469 315.33464837 193.1443956 310.91061497 193.15615082 C302.24944577 193.17452302 293.58850228 193.16601829 284.92734013 193.14806259 C277.88904548 193.1340347 270.85081207 193.1301442 263.81250477 193.13350487 C262.81064026 193.13398231 261.80877574 193.13445975 260.7765517 193.13495166 C258.74128435 193.13597799 256.706017 193.13703335 254.67074968 193.13811743 C236.67737674 193.14668341 218.68411276 193.13001178 200.69076633 193.10028839 C183.22848021 193.07144264 165.76635101 193.06437166 148.30404758 193.07978058 C129.28829957 193.09653729 110.27262606 193.10058302 91.25687611 193.08307022 C89.22972402 193.08122582 87.20257192 193.0793911 85.17541981 193.07756615 C83.67931419 193.07619801 83.67931419 193.07619801 82.15298422 193.07480224 C75.12149684 193.06919421 68.09004579 193.07250643 61.05856037 193.0791111 C52.49205045 193.0868382 43.92569507 193.08011391 35.35921632 193.05493606 C30.98781503 193.04242754 26.6166545 193.03631089 22.24524403 193.04747772 C18.24445524 193.05750495 14.24414701 193.04909326 10.2434168 193.02589654 C8.79538381 193.02072946 7.3473079 193.02231315 5.89929353 193.03129119 C-6.26157812 193.10042538 -6.26157812 193.10042538 -10.02288532 190.84619808 C-13.71482971 187.16447322 -16.09892382 184.35355853 -16.87558651 179.09564972 C-16.87709461 177.84058624 -16.87860271 176.58552277 -16.88015652 175.29242706 C-16.88639648 174.5891629 -16.89263644 173.88589874 -16.89906549 173.16132355 C-16.91495628 170.81665771 -16.90240758 168.47303718 -16.88980007 166.12836456 C-16.89522297 164.44264878 -16.90234657 162.75693774 -16.91104031 161.07123566 C-16.92925677 156.50096743 -16.9222131 151.93106089 -16.90952396 147.36078644 C-16.89938761 142.57496933 -16.90879141 137.78918291 -16.91506863 133.00336456 C-16.92234318 124.96684975 -16.91276237 116.93048204 -16.89370632 108.89398956 C-16.87193795 99.60645509 -16.87898945 90.31927187 -16.90101194 81.03174591 C-16.91917142 73.05364732 -16.92172159 65.07565439 -16.91125727 57.09754181 C-16.90502535 52.33432 -16.90417841 47.57126323 -16.91740322 42.80805206 C-16.92896907 38.3296339 -16.92092267 33.85166802 -16.89782619 29.37329865 C-16.89254301 27.73101299 -16.89404622 26.08868918 -16.90287685 24.44641876 C-16.91383207 22.20186831 -16.90007128 19.95876092 -16.88015652 17.71430206 C-16.87864841 16.45923859 -16.87714031 15.20417511 -16.87558651 13.91107941 C-16.08585317 8.56468391 -13.83915742 5.64752575 -9.62403244 2.35986757 C-6.02961101 0.3077633 -4.09638576 0.00243255 0 0 Z " fill="#50BEE8" transform="translate(48.37222194671631,239.49663543701172)"/>
<path d="M0 0 C6.66859393 5.4832487 12.71373784 11.56537937 18.81030273 17.66503906 C19.99338825 18.84512852 21.17667727 20.02501399 22.3601532 21.20471191 C25.55627919 24.39204695 28.74919542 27.58257832 31.94124866 30.77399158 C33.93560031 32.76763084 35.93066294 34.76055574 37.92598152 36.75322723 C44.88571566 43.70372974 51.84288186 50.65679064 58.79760742 57.61230469 C65.28526766 64.10056766 71.77850647 70.58321076 78.27433819 77.06329179 C83.85336262 82.62926874 89.42855355 88.19906562 95.00073773 93.7718904 C98.32832385 97.099732 101.65745898 100.4259877 104.99044609 103.74842072 C108.11800663 106.86634532 111.24079065 109.9889739 114.35988045 113.1153717 C115.50788806 114.26443026 116.65762228 115.41176663 117.80915833 116.55728912 C119.37455929 118.11503985 120.93374352 119.67875227 122.49143982 121.24420166 C123.36726935 122.11948643 124.24309889 122.99477119 125.14546871 123.89657974 C127 126 127 126 127 128 C114.39510984 128.04643635 101.79024019 128.08192656 89.18528175 128.10362434 C83.3316609 128.11404063 77.47809878 128.12816044 71.62451172 128.15087891 C65.97053834 128.17268416 60.3166213 128.18458482 54.6626091 128.18975449 C52.51056406 128.19343647 50.35852193 128.20062634 48.20650101 128.21146011 C45.18138325 128.22607713 42.15649531 128.22797368 39.13134766 128.22705078 C38.25092804 128.23424133 37.37050842 128.24143188 36.46340942 128.24884033 C25.64950677 128.21337597 17.15374176 126.43677481 9 119 C1.3965975 109.80993706 -0.15973855 100.85278946 -0.11352539 89.23095703 C-0.11367142 88.26447739 -0.11381744 87.29799774 -0.1139679 86.30223083 C-0.11327351 83.1207349 -0.10550333 79.93929816 -0.09765625 76.7578125 C-0.09579039 74.54678377 -0.09436728 72.33575463 -0.09336853 70.12472534 C-0.08955662 64.31492973 -0.07973765 58.50515924 -0.06866455 52.69537354 C-0.05842192 46.76306498 -0.0538648 40.83075235 -0.04882812 34.8984375 C-0.03811419 23.26561398 -0.02105369 11.63280908 0 0 Z " fill="#B0B7BD" transform="translate(352,0)"/>
<path d="M0 0 C0.33 0 0.66 0 1 0 C1.10887507 2.68860931 1.18770594 5.37273158 1.25 8.0625 C1.28351563 8.81466797 1.31703125 9.56683594 1.3515625 10.34179688 C1.45097919 16.0831109 0.28088796 19.27289185 -3 24 C-7.29575092 27.98142769 -10.39794929 29.12539701 -16.17929363 29.12304783 C-17.25815262 29.12503888 -18.3370116 29.12702993 -19.44856328 29.12908131 C-20.63823683 29.12616847 -21.82791038 29.12325563 -23.05363464 29.12025452 C-24.31393205 29.12110894 -25.57422945 29.12196337 -26.87271768 29.12284368 C-30.37763578 29.12508524 -33.88252347 29.12107197 -37.3874377 29.11606562 C-41.16451638 29.11175647 -44.94159327 29.11320788 -48.71867371 29.1139679 C-55.26496476 29.11449283 -61.81124586 29.11134916 -68.35753441 29.10573006 C-77.82242667 29.09761101 -87.2873141 29.09499942 -96.75220946 29.09374207 C-112.10751412 29.09155219 -127.46281346 29.08489383 -142.81811523 29.07543945 C-157.73640923 29.06626369 -172.6547018 29.05918366 -187.57299805 29.05493164 C-188.49220451 29.05466892 -189.41141098 29.05440619 -190.35847219 29.05413551 C-194.96975422 29.05283049 -199.58103627 29.05156678 -204.19231832 29.05032361 C-242.4615493 29.03995298 -280.73077421 29.02226218 -319 29 C-319 23.72 -319 18.44 -319 13 C-317.4200248 12.99945523 -315.84004959 12.99891047 -314.21219635 12.99834919 C-276.70687002 12.98430509 -239.20164619 12.94455346 -201.69638339 12.87314438 C-197.08014135 12.86437763 -192.46389894 12.85582782 -187.84765625 12.84741211 C-186.46913995 12.84489352 -186.46913995 12.84489352 -185.06277484 12.84232404 C-170.18222977 12.81565416 -155.30172322 12.80655897 -140.4211567 12.80395857 C-125.15233663 12.80089913 -109.88362793 12.77895352 -94.61485815 12.73947543 C-85.19315192 12.71571045 -75.77166803 12.70667719 -66.34993595 12.71648689 C-59.88911042 12.72180259 -53.42848413 12.70877348 -46.96771532 12.6813371 C-43.24008949 12.66604848 -39.51290953 12.65883091 -35.78527069 12.67340279 C-31.74142022 12.6889991 -27.69869921 12.66595591 -23.65490723 12.63923645 C-22.47979788 12.64990971 -21.30468854 12.66058297 -20.09396982 12.67157966 C-13.32695292 12.58805807 -8.03705936 11.846301 -3 7 C-1.57158778 4.6618482 -0.82912786 2.64284506 0 0 Z " fill="#C9D1D8" transform="translate(415,419)"/>
<path d="M0 0 C0 31.68 0 63.36 0 96 C-7.87529997 89.24974288 -7.87529997 89.24974288 -11.18260193 85.94438171 C-11.93267014 85.19713333 -12.68273834 84.44988495 -13.45553589 83.67999268 C-14.25323395 82.88027039 -15.05093201 82.0805481 -15.87280273 81.2565918 C-16.73213913 80.39900772 -17.59147552 79.54142365 -18.47685242 78.65785217 C-20.81295807 76.32537215 -23.14681924 73.99069243 -25.4795177 71.65480781 C-27.92568342 69.20609679 -30.37430328 66.75984173 -32.82252502 64.31318665 C-36.92539264 60.21213234 -41.02616007 56.10898687 -45.12573242 52.00463867 C-49.86993348 47.2549748 -54.61775563 42.50895344 -59.36743206 37.76476544 C-63.45005741 33.68666921 -67.53074208 29.60663875 -71.60979229 25.52496654 C-74.04439856 23.08879917 -76.47968055 20.65331762 -78.91671562 18.2195797 C-81.62498923 15.51471555 -84.32918745 12.80580033 -87.03295898 10.09643555 C-87.84482666 9.2865921 -88.65669434 8.47674866 -89.49316406 7.6423645 C-90.2234935 6.90921524 -90.95382294 6.17606598 -91.70628357 5.42070007 C-92.3461341 4.78047252 -92.98598463 4.14024496 -93.64522457 3.48061657 C-95 2 -95 2 -95 1 C-82.7611933 0.86955395 -70.522386 0.73916459 -58.28357792 0.60884857 C-52.6012424 0.54834256 -46.9189071 0.48781667 -41.23657227 0.42724609 C-35.75771063 0.36884515 -30.27884845 0.31049545 -24.79998589 0.25218201 C-22.70470599 0.22987207 -20.6094263 0.20754334 -18.5141468 0.18519592 C-15.59024227 0.15401387 -12.66633704 0.1228973 -9.74243164 0.09179688 C-8.8670575 0.08244614 -7.99168335 0.0730954 -7.08978271 0.0634613 C-1.11405216 0 -1.11405216 0 0 0 Z " fill="#C9D0D7" transform="translate(480,127)"/>
<path d="M0 0 C0.74844177 -0.0004985 1.49688354 -0.00099701 2.26800537 -0.00151062 C3.8481309 0.00082307 5.42826062 0.01050999 7.00830078 0.02709961 C9.40041215 0.05057066 11.79139729 0.0476702 14.18359375 0.04101562 C26.07347278 0.06168503 36.53216396 0.60060966 46.171875 8.36328125 C53.87519232 17.11834301 55.93354744 25.59245278 55.609375 37.01953125 C55.04056128 45.15356751 51.23280055 51.76495054 45.421875 57.36328125 C36.14037436 64.31809669 27.41035848 64.90638697 16.046875 64.61328125 C14.69533924 64.59316718 13.34377426 64.57492515 11.9921875 64.55859375 C8.71798809 64.51181947 5.44532252 64.44628265 2.171875 64.36328125 C2.19805908 64.97324951 2.22424316 65.58321777 2.2512207 66.21166992 C2.35553219 68.99110883 2.42030482 71.77013564 2.484375 74.55078125 C2.52626953 75.51048828 2.56816406 76.47019531 2.61132812 77.45898438 C2.73497678 84.60587635 2.73497678 84.60587635 -0.16015625 88.5 C-2.828125 90.36328125 -2.828125 90.36328125 -5.828125 90.98828125 C-9.81420469 90.15784798 -11.29067935 88.48071448 -13.828125 85.36328125 C-15.0142846 81.80480246 -14.96248615 78.95869691 -14.97338867 75.20141602 C-14.97674728 74.47588531 -14.9801059 73.75035461 -14.98356628 73.00283813 C-14.99306855 70.6034372 -14.99501897 68.20410609 -14.99609375 65.8046875 C-14.99930663 64.13703889 -15.00267073 62.46939057 -15.00617981 60.80174255 C-15.01216912 57.30556586 -15.01401989 53.80941388 -15.01342773 50.31323242 C-15.01332608 45.83299878 -15.02698281 41.35292349 -15.04419994 36.87272739 C-15.05531697 33.42835258 -15.05734704 29.98401609 -15.05681801 26.53962517 C-15.0579984 24.88781119 -15.06242348 23.23599623 -15.07015038 21.58419991 C-15.0799451 19.27420063 -15.07707447 16.96454581 -15.07104492 14.65454102 C-15.07246994 13.34010513 -15.07389496 12.02566925 -15.07536316 10.67140198 C-14.84360166 7.57036367 -14.5481276 5.90452648 -12.828125 3.36328125 C-8.78721546 0.09517025 -5.00500503 -0.06478157 0 0 Z " fill="#FBFDFE" transform="translate(195.828125,293.63671875)"/>
<path d="M0 0 C0.56847656 0.474375 1.13695312 0.94875 1.72265625 1.4375 C3 3 3 3 3 6.9375 C2.45737106 10.1401904 2.02364298 10.97373002 -0.25 13.5 C-3.3205723 15.17485762 -4.56952067 15.39641094 -8 15 C-10.46484375 13.5390625 -10.46484375 13.5390625 -12.9375 11.625 C-20.35225188 6.23542264 -26.8481403 4.75101432 -36 6 C-43.5086216 8.54821578 -49.7581617 12.20182206 -54 19 C-54.40992188 19.64453125 -54.81984375 20.2890625 -55.2421875 20.953125 C-59.26799822 28.44946221 -59.20214969 37.02579898 -57.234375 45.16796875 C-54.55236943 53.05434229 -51.11807899 57.57393049 -44.09765625 61.984375 C-36.94073968 65.44954876 -25.48517403 65.31680109 -17.953125 63.10546875 C-15.27683133 61.94646387 -15.27683133 61.94646387 -12 60 C-11.67 54.72 -11.34 49.44 -11 44 C-12.61390625 44.05800781 -14.2278125 44.11601562 -15.890625 44.17578125 C-18.01038778 44.22267866 -20.13018179 44.26817883 -22.25 44.3125 C-23.31347656 44.35439453 -24.37695312 44.39628906 -25.47265625 44.43945312 C-33.34895631 44.56329432 -33.34895631 44.56329432 -36.6953125 41.66796875 C-38.3201776 38.34526557 -38.75933018 36.64478486 -38 33 C-35.15522214 29.45705321 -33.42397741 28.20537062 -28.88525391 27.55078125 C-25.0783451 27.39811291 -21.30895443 27.41727838 -17.5 27.5 C-16.19417969 27.49742187 -14.88835937 27.49484375 -13.54296875 27.4921875 C-2.53904215 27.60458716 -2.53904215 27.60458716 3 31 C6.20208235 35.80312352 5.3335834 41.06463633 5.31567383 46.71411133 C5.31252651 48.79497269 5.33593288 50.8743938 5.36132812 52.95507812 C5.36360268 54.28906072 5.36430389 55.62304711 5.36328125 56.95703125 C5.36626221 58.16335205 5.36924316 59.36967285 5.37231445 60.61254883 C4.86271784 65.24904259 3.49051705 68.69686224 -0.05078125 71.79296875 C-0.79714844 72.25316406 -1.54351562 72.71335937 -2.3125 73.1875 C-3.11171875 73.68121094 -3.9109375 74.17492187 -4.734375 74.68359375 C-16.70088396 81.6365481 -30.01084648 82.93409353 -43.55078125 80.3125 C-46.50006873 79.39443386 -49.21011627 78.32261155 -52 77 C-52.88042969 76.5875 -53.76085937 76.175 -54.66796875 75.75 C-65.08481618 70.20275295 -71.22503745 60.88306978 -74.6796875 49.82421875 C-77.10430961 40.47447731 -76.33994455 31.2773858 -74 22 C-73.7525 21.01 -73.505 20.02 -73.25 19 C-67.91532211 6.19677305 -59.42336515 -2.56489264 -46.640625 -8.00390625 C-30.28465114 -13.84129692 -13.1679914 -11.4041496 0 0 Z " fill="#FAFDFE" transform="translate(341,304)"/>
<path d="M0 0 C2.6257221 1.65127416 3.58023896 2.34214017 5 5 C5.75521452 9.5498961 5.67599875 14.06123145 5.62890625 18.6640625 C5.62973611 20.02062164 5.63219992 21.37718068 5.63621521 22.73373413 C5.63907058 25.57686653 5.62441163 28.41921015 5.59692383 31.26220703 C5.5630351 34.87666761 5.56879532 38.48970059 5.5875864 42.10422707 C5.59825107 44.90818801 5.58913075 47.71182731 5.57420158 50.51575851 C5.56660737 52.48686174 5.57382044 54.45800452 5.58143616 56.42910767 C5.44316898 67.11863354 3.55651474 76.39638105 -4 84.34375 C-12.26603634 91.18906134 -22.68958984 91.78269756 -32.9609375 91.21777344 C-41.51027264 90.30469789 -47.88139842 85.93380668 -53.57421875 79.76953125 C-56.43051763 76.22459045 -56.45818142 73.50545063 -56 69 C-53.875 66.0625 -53.875 66.0625 -51 64 C-47.36488802 63.53396 -45.64927948 63.54155965 -42.62109375 65.6796875 C-41.54021484 66.76636719 -41.54021484 66.76636719 -40.4375 67.875 C-36.20737896 72.08250007 -32.62885154 74.28005962 -26.5625 74.3125 C-22.35471796 74.18647658 -19.46363697 73.55649395 -16 71 C-12.15351292 64.48554832 -12.60854186 57.98485984 -12.6640625 50.5859375 C-12.65475366 48.6183882 -12.64541631 46.65083854 -12.63438988 44.68329811 C-12.61202649 39.85558101 -12.6219852 35.02791061 -12.63964844 30.20019531 C-12.64846021 27.48160636 -12.64401853 24.76361567 -12.62582397 22.04507446 C-12.60992101 19.49089872 -12.61457514 16.93649381 -12.64199829 14.38241577 C-12.55962528 4.80324262 -12.55962528 4.80324262 -9.68115234 1.71728516 C-6.10899934 -0.57068828 -4.16586118 -0.74390378 0 0 Z " fill="#FCFDFE" transform="translate(154,295)"/>
<path d="M0 0 C3.96 -0.103125 7.92 -0.20625 12 -0.3125 C13.84851563 -0.38078003 13.84851563 -0.38078003 15.734375 -0.45043945 C22.7420513 -0.53837581 27.70402223 0.17591605 33 5 C36.57719143 9.28118668 37.66141881 13.28959455 37.38671875 18.859375 C36.37235061 24.47426129 32.45317661 27.83590083 28 31 C25.28598706 32.35700647 23.15153684 32.1123861 20.1171875 32.09765625 C19.06644043 32.09515869 18.01569336 32.09266113 16.93310547 32.09008789 C15.59393066 32.08098389 14.25475586 32.07187988 12.875 32.0625 C8.62625 32.041875 4.3775 32.02125 0 32 C0 21.44 0 10.88 0 0 Z " fill="#54BFE8" transform="translate(198,310)"/>
</svg>
