<svg width="22" height="12" viewBox="0 0 22 12" fill="none" xmlns="http://www.w3.org/2000/svg">
<path d="M19.592 4.00497H11.652C11.1685 2.63551 10.2049 1.48774 8.9399 0.774324C7.67487 0.0609084 6.19413 -0.16979 4.77203 0.124972C2.48203 0.584972 0.622034 2.42497 0.142034 4.70497C-0.052263 5.58215 -0.0471558 6.49175 0.156979 7.36669C0.361114 8.24163 0.759068 9.05958 1.32149 9.76021C1.88391 10.4608 2.59644 11.0263 3.40653 11.4148C4.21662 11.8033 5.1036 12.005 6.00203 12.005C7.24198 12.005 8.45138 11.6203 9.46338 10.9038C10.4754 10.1873 11.2401 9.17449 11.652 8.00497H12.002L13.292 9.29497C13.682 9.68497 14.312 9.68497 14.702 9.29497L16.002 8.00497L17.292 9.29497C17.682 9.68497 18.322 9.68497 18.712 9.29497L21.302 6.68497C21.3951 6.59135 21.4687 6.48023 21.5186 6.35801C21.5686 6.23579 21.5938 6.1049 21.5928 5.97289C21.5919 5.84088 21.5649 5.71035 21.5132 5.58885C21.4616 5.46735 21.3864 5.35727 21.292 5.26497L20.302 4.29497C20.102 4.10497 19.852 4.00497 19.592 4.00497ZM6.00203 9.00497C4.35203 9.00497 3.00203 7.65497 3.00203 6.00497C3.00203 4.35497 4.35203 3.00497 6.00203 3.00497C7.65203 3.00497 9.00203 4.35497 9.00203 6.00497C9.00203 7.65497 7.65203 9.00497 6.00203 9.00497Z" fill="black"/>
</svg>
