<?xml version="1.0" encoding="UTF-8"?>
<svg version="1.1" xmlns="http://www.w3.org/2000/svg" width="512" height="512">
<path d="M0 0 C1.30048109 -0.13697356 1.30048109 -0.13697356 2.62723452 -0.27671427 C5.53120669 -0.57706296 8.43628683 -0.86365854 11.3419342 -1.14732361 C12.36245251 -1.24864782 13.38297081 -1.34997204 14.43441391 -1.45436668 C35.03515872 -3.47659477 55.66300847 -4.6958358 76.3384161 -5.64930058 C89.44176596 -6.26994771 102.44886255 -7.11320016 115.4879303 -8.5955658 C175.4164274 -15.24838465 221.66989779 -7.41178604 269.00448418 30.22916317 C317.16155636 69.21103499 355.29585902 114.82450949 361.97895372 177.98880732 C365.82580106 217.69533344 363.4400289 257.82332133 360.66115588 297.51656371 C359.65526963 312.05799947 359.00006083 326.58728527 358.56556702 341.15663147 C358.53446275 342.19648236 358.50335848 343.23633325 358.47131165 344.30769478 C358.31667119 349.53124222 358.1671269 354.75492222 358.01949346 359.97867179 C357.11988797 391.5053965 355.86324727 423.00549645 353.90818465 454.48516798 C353.75864497 456.9228378 353.61527793 459.36079997 353.47351074 461.79893303 C353.25314671 465.56305523 353.01437316 469.32554838 352.76007096 473.08752669 C352.6283298 475.08335081 352.51180085 477.08016133 352.39590234 479.07696807 C351.69006571 488.8696399 349.19882036 497.79981577 342.28749084 505.09510803 C335.86353981 510.25806127 329.69788488 513.34074094 321.32690716 513.35237694 C320.15009024 513.35882583 318.97327333 513.36527472 317.7607953 513.37191904 C316.47705279 513.36882183 315.19331029 513.36572463 313.8706665 513.36253357 C312.48596697 513.36627169 311.10126954 513.37087386 309.71657544 513.37626421 C305.91655399 513.38848965 302.11662062 513.38823429 298.31658399 513.38587546 C294.21626072 513.38546718 290.11596564 513.39650751 286.01565552 513.4059906 C277.98427611 513.42259897 269.95292607 513.42810007 261.92153092 513.42921536 C255.3928563 513.43016589 248.86419135 513.43427645 242.33551979 513.44061661 C223.82314519 513.45822842 205.31079377 513.46745555 186.79841074 513.46595566 C185.80053715 513.46587575 184.80266357 513.46579583 183.77455139 513.4657135 C182.77545863 513.46563174 181.77636587 513.46554998 180.74699757 513.46546574 C164.55477036 513.46465281 148.36263617 513.48379233 132.17043587 513.51199023 C115.54206335 513.5407191 98.91373619 513.55453053 82.28533822 513.55280268 C72.95068548 513.55213879 63.61613025 513.55763073 54.28149986 513.57915878 C46.33391468 513.59737058 38.38647122 513.60171792 30.43887421 513.58813994 C26.38505989 513.58161032 22.33151748 513.58149271 18.27772903 513.59884644 C14.5635323 513.61458269 10.84982292 513.6117083 7.13563804 513.59427817 C5.16221633 513.58976051 3.18877947 513.60486127 1.21541661 513.62075746 C-6.00007604 513.5647361 -11.43882023 512.7401325 -17.71250916 509.09510803 C-18.36608282 508.71684163 -19.01965649 508.33857524 -19.69303542 507.94884622 C-26.62058251 503.72310657 -30.49598683 496.71433573 -32.71250916 489.09510803 C-32.95301819 486.24760437 -32.95301819 486.24760437 -32.93955994 483.27333069 C-32.93940887 482.15262177 -32.93925781 481.03191284 -32.93910217 479.87724304 C-32.9287796 478.68327911 -32.91845703 477.48931519 -32.90782166 476.25917053 C-32.90499176 475.0246817 -32.90216187 473.79019287 -32.89924622 472.51829529 C-32.88807438 468.58546654 -32.86297479 464.65286766 -32.83750916 460.72010803 C-32.82634741 458.04953845 -32.81835034 455.37897102 -32.81016541 452.70838928 C-32.7881448 446.17055078 -32.75469675 439.63284583 -32.71250916 433.09510803 C-33.3757016 433.10399048 -34.03889404 433.11287292 -34.72218323 433.12202454 C-41.63277049 433.21060759 -48.54319611 433.27088819 -55.45420837 433.31483459 C-58.03240003 433.33493366 -60.6105462 433.36221744 -63.18858337 433.39686584 C-66.89719376 433.4454565 -70.60520071 433.46809461 -74.31407166 433.48573303 C-76.03939621 433.51670074 -76.03939621 433.51670074 -77.79957581 433.54829407 C-83.9032266 433.55000048 -88.06872294 433.50528496 -92.71250916 429.09510803 C-96.28042201 424.56371676 -97.21354439 421.62589372 -97.22044373 415.88417053 C-97.22980367 414.82927429 -97.22980367 414.82927429 -97.2393527 413.75306702 C-97.25524349 411.40840118 -97.24269479 409.06478065 -97.23008728 406.72010803 C-97.23551017 405.03439225 -97.24263377 403.34868121 -97.25132751 401.66297913 C-97.26954398 397.0927109 -97.2625003 392.52280436 -97.24981117 387.95252991 C-97.23967482 383.1667128 -97.24907862 378.38092638 -97.25535583 373.59510803 C-97.26263038 365.55859322 -97.25304958 357.52222551 -97.23399353 349.48573303 C-97.21222515 340.19819856 -97.21927666 330.91101534 -97.24129915 321.62348938 C-97.25945863 313.64539079 -97.26200879 305.66739786 -97.25154448 297.68928528 C-97.24531256 292.92606347 -97.24446562 288.1630067 -97.25769043 283.39979553 C-97.26925628 278.92137736 -97.26120988 274.44341149 -97.2381134 269.96504211 C-97.23283022 268.32275645 -97.23433343 266.68043265 -97.24316406 265.03816223 C-97.25411928 262.79361178 -97.24035849 260.55050438 -97.22044373 258.30604553 C-97.21893562 257.05098206 -97.21742752 255.79591858 -97.21587372 254.50282288 C-96.45219227 249.33279544 -93.95945705 246.27932724 -90.2374115 242.74452209 C-84.96336843 240.27662938 -80.06415857 240.60127518 -74.31407166 240.70448303 C-73.12397491 240.71014282 -71.93387817 240.71580261 -70.7077179 240.72163391 C-66.91723429 240.74397352 -63.12770571 240.79416841 -59.33750916 240.84510803 C-56.76330408 240.86517602 -54.18908415 240.88342626 -51.61485291 240.89979553 C-45.31374737 240.94383059 -39.01319651 241.01071998 -32.71250916 241.09510803 C-32.71619633 239.99019799 -32.7198835 238.88528795 -32.7236824 237.74689579 C-32.81250121 210.85553245 -32.87822198 183.96418815 -32.91975784 157.07270908 C-32.94037843 144.06815946 -32.96848962 131.06370677 -33.01426697 118.05921936 C-33.05414989 106.72381984 -33.07994562 95.38849053 -33.08886313 84.0530228 C-33.09407536 78.05159275 -33.10631591 72.05036353 -33.13542938 66.04899788 C-33.16262123 60.39785358 -33.1709464 54.74699246 -33.16493988 49.09578896 C-33.16603842 47.02419241 -33.17396964 44.95258618 -33.18933105 42.8810463 C-33.20931778 40.04621739 -33.2044166 37.21244893 -33.19352722 34.37759399 C-33.20517859 33.56336474 -33.21682995 32.74913548 -33.22883439 31.9102326 C-33.14150962 23.4637859 -29.54370949 15.25026394 -23.71250916 9.09510803 C-16.34884712 3.17690558 -9.26720683 0.93313051 0 0 Z " fill="#E1E4E6" transform="translate(128.71250915527344,-1.0951080322265625)"/>
<path d="M0 0 C1.9029279 -0.01564648 1.9029279 -0.01564648 3.84429878 -0.03160906 C5.24457522 -0.0229616 6.64484937 -0.013935 8.04512119 -0.00457001 C9.53849459 -0.00918002 11.03186346 -0.01553361 12.52522284 -0.02347898 C16.62564576 -0.04018207 20.72569645 -0.03192159 24.82612073 -0.01953411 C29.24952907 -0.01048984 33.67287307 -0.0244503 38.09626865 -0.0354538 C46.76068805 -0.05325071 55.42496894 -0.04939369 64.08939379 -0.03780323 C71.13106021 -0.02877321 78.17268778 -0.02754305 85.21435833 -0.0318985 C86.2162051 -0.03251143 87.21805187 -0.03312436 88.25025763 -0.03375587 C90.28544232 -0.03503476 92.320627 -0.03633161 94.35581166 -0.03764623 C113.44515324 -0.04905562 132.53441802 -0.03593301 151.623747 -0.01444477 C168.00460508 0.0034238 184.38534976 0.00032478 200.76620579 -0.01811981 C219.7852398 -0.0395249 238.80420646 -0.04795407 257.82325083 -0.03567076 C259.85129455 -0.03439655 261.87933827 -0.03313907 263.90738201 -0.0318985 C264.90523502 -0.0312814 265.90308802 -0.03066429 266.931179 -0.03002849 C273.96418082 -0.02657431 280.99713994 -0.03240548 288.03013515 -0.04181671 C296.60141522 -0.05303417 305.17254875 -0.05000208 313.74381202 -0.02869374 C318.11735342 -0.01817949 322.49065049 -0.01406779 326.8641901 -0.02729034 C330.86818648 -0.03921257 334.87171215 -0.03265475 338.87566585 -0.01138014 C340.32377978 -0.00691329 341.77193351 -0.00918228 343.22002184 -0.01888329 C356.70001054 -0.10225821 356.70001054 -0.10225821 362.62777805 4.50336456 C367.08308545 9.31040676 367.75236515 12.7116375 367.77494907 19.15026093 C367.77862576 19.82913292 367.78230245 20.50800491 367.78609055 21.20744878 C367.79712314 23.48732873 367.80097052 25.76716309 367.80478001 28.04706573 C367.81104504 29.67982884 367.81769187 31.31259053 367.82469273 32.94535065 C367.84573272 38.31233477 367.85609578 43.67931918 367.8660593 49.04633331 C367.87010703 50.89451678 367.87422396 52.7427001 367.87840939 54.59088326 C367.89746175 63.27482141 367.91169209 71.95875106 367.92002136 80.6427061 C367.92979117 90.66291555 367.9561038 100.68290396 367.99652225 110.70303553 C368.02669788 118.45008028 368.04149165 126.19706172 368.04480237 133.9441641 C368.04715142 138.57004274 368.05609281 143.19568524 368.08126354 147.82150078 C368.1045743 152.1758962 368.10876549 156.52990051 368.09850216 160.88434219 C368.0980074 162.47904195 368.10431022 164.07376115 368.1180582 165.66840172 C368.24118976 180.80222703 368.24118976 180.80222703 363.62777805 187.50336456 C358.62623673 191.48418316 354.93082127 192.62728021 348.63752365 192.63758564 C346.74785552 192.64427241 346.74785552 192.64427241 344.82001227 192.65109426 C343.41415257 192.65100496 342.00829288 192.6508151 340.6024332 192.65053558 C339.11506628 192.65383414 337.62770026 192.6575597 336.14033538 192.66167706 C332.04272761 192.67170584 327.94513449 192.67541526 323.84751618 192.67806637 C319.43227364 192.68196675 315.01704272 192.69154518 310.60180759 192.70027924 C299.93479042 192.72004978 289.26777228 192.73010998 278.60074136 192.73900703 C273.5801846 192.74338841 268.55962891 192.74875555 263.53907299 192.7539959 C246.85491467 192.77100773 230.17075701 192.78550308 213.48659134 192.79274464 C209.15613078 192.79465459 204.82567023 192.79657492 200.49520969 192.79853058 C198.88069735 192.79925619 198.88069735 192.79925619 197.23356859 192.79999646 C179.78785827 192.80830118 162.34221642 192.83364577 144.89653601 192.86611126 C126.99475423 192.89915461 109.09300728 192.91719087 91.19119483 192.92038888 C81.13615029 192.92255635 71.08120563 192.93133984 61.02619076 192.95685005 C52.46507793 192.97851975 43.90408924 192.98662585 35.34295209 192.97688327 C30.97359094 192.9723279 26.60448613 192.97429638 22.23515987 192.99364471 C18.23605486 193.01120102 14.23739464 193.01034045 10.2382854 192.99474742 C8.79076243 192.99235985 7.34320927 192.9967542 5.8957326 193.00857607 C-6.26182751 193.10172778 -6.26182751 193.10172778 -10.02261543 190.84788036 C-15.00573034 185.87556199 -16.87163893 182.38087717 -16.88015652 175.29242706 C-16.88639648 174.5891629 -16.89263644 173.88589874 -16.89906549 173.16132355 C-16.91495628 170.81665771 -16.90240758 168.47303718 -16.88980007 166.12836456 C-16.89522297 164.44264878 -16.90234657 162.75693774 -16.91104031 161.07123566 C-16.92925677 156.50096743 -16.9222131 151.93106089 -16.90952396 147.36078644 C-16.89938761 142.57496933 -16.90879141 137.78918291 -16.91506863 133.00336456 C-16.92234318 124.96684975 -16.91276237 116.93048204 -16.89370632 108.89398956 C-16.87193795 99.60645509 -16.87898945 90.31927187 -16.90101194 81.03174591 C-16.91917142 73.05364732 -16.92172159 65.07565439 -16.91125727 57.09754181 C-16.90502535 52.33432 -16.90417841 47.57126323 -16.91740322 42.80805206 C-16.92896907 38.3296339 -16.92092267 33.85166802 -16.89782619 29.37329865 C-16.89254301 27.73101299 -16.89404622 26.08868918 -16.90287685 24.44641876 C-16.91383207 22.20186831 -16.90007128 19.95876092 -16.88015652 17.71430206 C-16.87864841 16.45923859 -16.87714031 15.20417511 -16.87558651 13.91107941 C-16.08585317 8.56468391 -13.83915742 5.64752575 -9.62403244 2.35986757 C-6.02961101 0.3077633 -4.09638576 0.00243255 0 0 Z " fill="#A066AA" transform="translate(48.37222194671631,239.49663543701172)"/>
<path d="M0 0 C6.66859393 5.4832487 12.71373784 11.56537937 18.81030273 17.66503906 C19.99338825 18.84512852 21.17667727 20.02501399 22.3601532 21.20471191 C25.55627919 24.39204695 28.74919542 27.58257832 31.94124866 30.77399158 C33.93560031 32.76763084 35.93066294 34.76055574 37.92598152 36.75322723 C44.88571566 43.70372974 51.84288186 50.65679064 58.79760742 57.61230469 C65.28526766 64.10056766 71.77850647 70.58321076 78.27433819 77.06329179 C83.85336262 82.62926874 89.42855355 88.19906562 95.00073773 93.7718904 C98.32832385 97.099732 101.65745898 100.4259877 104.99044609 103.74842072 C108.11800663 106.86634532 111.24079065 109.9889739 114.35988045 113.1153717 C115.50788806 114.26443026 116.65762228 115.41176663 117.80915833 116.55728912 C119.37455929 118.11503985 120.93374352 119.67875227 122.49143982 121.24420166 C123.36726935 122.11948643 124.24309889 122.99477119 125.14546871 123.89657974 C127 126 127 126 127 128 C114.39510984 128.04643635 101.79024019 128.08192656 89.18528175 128.10362434 C83.3316609 128.11404063 77.47809878 128.12816044 71.62451172 128.15087891 C65.97053834 128.17268416 60.3166213 128.18458482 54.6626091 128.18975449 C52.51056406 128.19343647 50.35852193 128.20062634 48.20650101 128.21146011 C45.18138325 128.22607713 42.15649531 128.22797368 39.13134766 128.22705078 C38.25092804 128.23424133 37.37050842 128.24143188 36.46340942 128.24884033 C25.64950677 128.21337597 17.15374176 126.43677481 9 119 C1.3965975 109.80993706 -0.15973855 100.85278946 -0.11352539 89.23095703 C-0.11367142 88.26447739 -0.11381744 87.29799774 -0.1139679 86.30223083 C-0.11327351 83.1207349 -0.10550333 79.93929816 -0.09765625 76.7578125 C-0.09579039 74.54678377 -0.09436728 72.33575463 -0.09336853 70.12472534 C-0.08955662 64.31492973 -0.07973765 58.50515924 -0.06866455 52.69537354 C-0.05842192 46.76306498 -0.0538648 40.83075235 -0.04882812 34.8984375 C-0.03811419 23.26561398 -0.02105369 11.63280908 0 0 Z " fill="#B0B7BD" transform="translate(352,0)"/>
<path d="M0 0 C0.33 0 0.66 0 1 0 C1.10887507 2.68860931 1.18770594 5.37273158 1.25 8.0625 C1.28351563 8.81466797 1.31703125 9.56683594 1.3515625 10.34179688 C1.45097919 16.0831109 0.28088796 19.27289185 -3 24 C-7.29575092 27.98142769 -10.39794929 29.12539701 -16.17929363 29.12304783 C-17.25815262 29.12503888 -18.3370116 29.12702993 -19.44856328 29.12908131 C-20.63823683 29.12616847 -21.82791038 29.12325563 -23.05363464 29.12025452 C-24.31393205 29.12110894 -25.57422945 29.12196337 -26.87271768 29.12284368 C-30.37763578 29.12508524 -33.88252347 29.12107197 -37.3874377 29.11606562 C-41.16451638 29.11175647 -44.94159327 29.11320788 -48.71867371 29.1139679 C-55.26496476 29.11449283 -61.81124586 29.11134916 -68.35753441 29.10573006 C-77.82242667 29.09761101 -87.2873141 29.09499942 -96.75220946 29.09374207 C-112.10751412 29.09155219 -127.46281346 29.08489383 -142.81811523 29.07543945 C-157.73640923 29.06626369 -172.6547018 29.05918366 -187.57299805 29.05493164 C-188.49220451 29.05466892 -189.41141098 29.05440619 -190.35847219 29.05413551 C-194.96975422 29.05283049 -199.58103627 29.05156678 -204.19231832 29.05032361 C-242.4615493 29.03995298 -280.73077421 29.02226218 -319 29 C-319 23.72 -319 18.44 -319 13 C-317.42517853 12.99853344 -315.85035706 12.99706688 -314.22781372 12.99555588 C-276.8446811 12.95985385 -239.46162757 12.90361261 -202.07856566 12.82207905 C-197.47734487 12.81206159 -192.87612373 12.80221746 -188.27490234 12.79248047 C-187.35888209 12.7905391 -186.44286184 12.78859772 -185.4990834 12.78659752 C-170.66704659 12.75557649 -155.83502525 12.73859658 -141.00296211 12.72680578 C-125.78387232 12.71439476 -110.56486373 12.68689445 -95.3458252 12.64538693 C-85.95486041 12.62025014 -76.5640303 12.60688285 -67.17303139 12.60857043 C-60.73325242 12.60860018 -54.29361063 12.59397298 -47.85388511 12.56783572 C-44.13846938 12.55318811 -40.42333497 12.5449881 -36.70789528 12.55419731 C-32.67731026 12.56401852 -28.64746879 12.54296791 -24.61694336 12.51898193 C-23.44572496 12.52674235 -22.27450657 12.53450277 -21.06779671 12.54249835 C-14.258482 12.47067671 -9.78969764 11.67009223 -4 8 C-2.27957378 5.9787325 -2.27957378 5.9787325 -1.5 3.75 C-1.2009375 3.04359375 -0.901875 2.3371875 -0.59375 1.609375 C-0.29984375 0.81273437 -0.29984375 0.81273437 0 0 Z " fill="#CAD0D7" transform="translate(415,419)"/>
<path d="M0 0 C0 31.68 0 63.36 0 96 C-7.87529997 89.24974288 -7.87529997 89.24974288 -11.18260193 85.94438171 C-11.93267014 85.19713333 -12.68273834 84.44988495 -13.45553589 83.67999268 C-14.25323395 82.88027039 -15.05093201 82.0805481 -15.87280273 81.2565918 C-16.73213913 80.39900772 -17.59147552 79.54142365 -18.47685242 78.65785217 C-20.81295807 76.32537215 -23.14681924 73.99069243 -25.4795177 71.65480781 C-27.92568342 69.20609679 -30.37430328 66.75984173 -32.82252502 64.31318665 C-36.92539264 60.21213234 -41.02616007 56.10898687 -45.12573242 52.00463867 C-49.86993348 47.2549748 -54.61775563 42.50895344 -59.36743206 37.76476544 C-63.45005741 33.68666921 -67.53074208 29.60663875 -71.60979229 25.52496654 C-74.04439856 23.08879917 -76.47968055 20.65331762 -78.91671562 18.2195797 C-81.62498923 15.51471555 -84.32918745 12.80580033 -87.03295898 10.09643555 C-87.84482666 9.2865921 -88.65669434 8.47674866 -89.49316406 7.6423645 C-90.2234935 6.90921524 -90.95382294 6.17606598 -91.70628357 5.42070007 C-92.3461341 4.78047252 -92.98598463 4.14024496 -93.64522457 3.48061657 C-95 2 -95 2 -95 1 C-82.7611933 0.86955395 -70.522386 0.73916459 -58.28357792 0.60884857 C-52.6012424 0.54834256 -46.9189071 0.48781667 -41.23657227 0.42724609 C-35.75771063 0.36884515 -30.27884845 0.31049545 -24.79998589 0.25218201 C-22.70470599 0.22987207 -20.6094263 0.20754334 -18.5141468 0.18519592 C-15.59024227 0.15401387 -12.66633704 0.1228973 -9.74243164 0.09179688 C-8.8670575 0.08244614 -7.99168335 0.0730954 -7.08978271 0.0634613 C-1.11405216 0 -1.11405216 0 0 0 Z " fill="#C9D0D7" transform="translate(480,127)"/>
<path d="M0 0 C0.74794327 -0.00570007 1.49588654 -0.01140015 2.26649475 -0.01727295 C3.85611557 -0.02673258 5.44575608 -0.03326075 7.03540039 -0.03710938 C9.43217043 -0.04671278 11.82804449 -0.07768161 14.22460938 -0.109375 C26.84416275 -0.19810193 37.43073569 0.93779354 47.53515625 9.203125 C49.84765625 11.515625 49.84765625 11.515625 51.53515625 14.203125 C52.09009766 15.03457031 52.09009766 15.03457031 52.65625 15.8828125 C57.29936019 24.14080086 56.8817018 35.34889223 54.8046875 44.37890625 C51.77816794 52.51962622 46.72939193 58.31697088 38.76098633 62.02978516 C31.57544931 64.78790518 24.58016104 64.54238597 16.97265625 64.390625 C15.67779297 64.37708984 14.38292969 64.36355469 13.04882812 64.34960938 C9.87716411 64.3144987 6.70638535 64.26531847 3.53515625 64.203125 C3.56134033 64.77756348 3.58752441 65.35200195 3.61450195 65.94384766 C3.71907425 68.57165671 3.78366569 71.19902731 3.84765625 73.828125 C3.88955078 74.73175781 3.93144531 75.63539063 3.97460938 76.56640625 C4.05565336 81.00761658 4.0483168 84.22212416 1.234375 87.80859375 C-1.46484375 90.203125 -1.46484375 90.203125 -4.96484375 90.890625 C-9.40645898 90.01816487 -10.67887743 88.73351652 -13.46484375 85.203125 C-13.9556759 82.4162466 -14.14152375 80.24170194 -14.09594727 77.46289062 C-14.10310257 76.69965988 -14.11025787 75.93642914 -14.11763 75.15007019 C-14.13449109 72.63588976 -14.11513149 70.12349912 -14.09375 67.609375 C-14.09457895 65.85729831 -14.0970393 64.10522169 -14.10105896 62.35314941 C-14.10391517 58.68457578 -14.08923348 55.01661328 -14.06176758 51.34814453 C-14.02768476 46.65031089 -14.03370449 41.95356984 -14.05243015 37.2556839 C-14.06300863 33.63876267 -14.05405469 30.02209482 -14.03904533 26.40519714 C-14.03386926 24.67328138 -14.03433835 22.94133909 -14.04059029 21.20942688 C-14.04605291 18.78682746 -14.02563602 16.36578165 -13.99829102 13.94335938 C-14.00481689 13.23048264 -14.01134277 12.5176059 -14.01806641 11.78312683 C-13.92648233 7.00136523 -12.84745002 4.56483042 -9.46484375 1.203125 C-6.44541681 -0.30658847 -3.31336682 0.0195371 0 0 Z " fill="#FDFBFD" transform="translate(106.46484375,293.796875)"/>
<path d="M0 0 C3.50500715 2.68968952 4.8520585 4.16891081 5.63491821 8.56677246 C5.66443466 9.95761907 5.66672183 11.34921479 5.64697266 12.74023438 C5.65573425 13.50346512 5.66449585 14.26669586 5.67352295 15.05305481 C5.69546735 17.56720416 5.68098339 20.07958388 5.6640625 22.59375 C5.6674321 24.34582862 5.67228592 26.09790496 5.67855835 27.84997559 C5.68592291 31.51853737 5.67523802 35.18648965 5.65185547 38.85498047 C5.62336744 43.55296086 5.63977372 48.24951309 5.66971779 52.9474411 C5.68780233 56.56437911 5.68202754 60.18097957 5.66907883 63.79792786 C5.66574799 65.52985301 5.6698206 67.26180899 5.68147659 68.99369812 C5.69420509 71.4165439 5.67478404 73.83709074 5.64697266 76.25976562 C5.66215439 77.32908073 5.66215439 77.32908073 5.67764282 78.41999817 C5.59586316 82.27354368 5.080001 83.899912 2.64315796 86.9486084 C0 89 0 89 -2.9375 89.5625 C-10.08634607 88.24944664 -13.9961857 83.00402572 -18.25 77.5625 C-18.8157373 76.8523877 -19.38147461 76.14227539 -19.96435547 75.41064453 C-24.21104006 70.06185843 -28.38451347 64.65602788 -32.52734375 59.2265625 C-35.63757951 55.15402305 -38.81032507 51.13096255 -41.98291016 47.10693359 C-44.55707436 43.84082147 -47.11885476 40.56547763 -49.67114258 37.28222656 C-50.29612137 36.4783551 -50.92110016 35.67448364 -51.5650177 34.84625244 C-52.03856186 34.23698914 -52.51210602 33.62772583 -53 33 C-53.00808685 33.61752136 -53.01617371 34.23504272 -53.02450562 34.87127686 C-53.11052587 41.29525438 -53.21002857 47.71892243 -53.31738281 54.14257812 C-53.35567905 56.54031174 -53.39053076 58.93810293 -53.421875 61.3359375 C-53.46751105 64.78145942 -53.5255087 68.22658472 -53.5859375 71.671875 C-53.59748871 72.74491882 -53.60903992 73.81796265 -53.62094116 74.92352295 C-53.64081085 75.92425842 -53.66068054 76.9249939 -53.68115234 77.95605469 C-53.69447601 78.83541687 -53.70779968 79.71477905 -53.7215271 80.62078857 C-54.0255391 83.2182005 -54.5854951 84.80749708 -56 87 C-59.75047482 89.50031654 -61.55856266 89.53603554 -66 89 C-69.52701405 86.31996343 -70.85437378 84.83737577 -71.62145996 80.42649841 C-71.64492777 79.03249375 -71.64111235 77.63785849 -71.61523438 76.24389648 C-71.62078339 75.47905945 -71.6263324 74.71422241 -71.63204956 73.9262085 C-71.6438259 71.40719232 -71.6195955 68.88998308 -71.59375 66.37109375 C-71.59203844 64.61662376 -71.59210504 62.86215121 -71.59387207 61.10768127 C-71.59222005 57.43490049 -71.57354236 53.76273099 -71.54199219 50.09008789 C-71.50228546 45.38331325 -71.49795098 40.67733789 -71.50545502 35.97042751 C-71.50852473 32.34927553 -71.49640466 28.72830314 -71.47932434 25.1071949 C-71.47229586 23.37166533 -71.46916962 21.63611542 -71.47001648 19.90057182 C-71.46821814 17.47557667 -71.44683527 15.05153857 -71.41992188 12.62670898 C-71.42285248 11.91023697 -71.42578308 11.19376495 -71.42880249 10.45558167 C-71.35912163 6.3852176 -70.97728101 3.88450144 -68 1 C-64.57162038 0.02303168 -61.46620401 0.24925535 -58 1 C-54.99688365 2.78129171 -53.12795764 5.26405446 -51 8 C-50.20207031 8.99644531 -49.40414062 9.99289062 -48.58203125 11.01953125 C-46.71033017 13.3725072 -44.86188807 15.74206854 -43.0234375 18.12109375 C-39.91319247 22.13381971 -36.71324537 26.06958035 -33.5 30 C-26.52236707 38.55071536 -19.60813356 47.15910031 -13 56 C-12.99857498 55.37217117 -12.99714996 54.74434235 -12.99568176 54.0974884 C-12.97598672 47.55958434 -12.92171695 41.02261417 -12.84741211 34.48510742 C-12.82422311 32.04572247 -12.80983432 29.60623726 -12.80444336 27.16674805 C-12.79516094 23.65870625 -12.75418218 20.15224328 -12.70703125 16.64453125 C-12.7109639 15.55477493 -12.71489655 14.46501862 -12.71894836 13.34223938 C-12.57353653 5.78645256 -12.57353653 5.78645256 -9.67456055 1.8112793 C-6.11697881 -0.59800403 -4.21419488 -0.7525348 0 0 Z " fill="#FDFDFE" transform="translate(250,295)"/>
<path d="M0 0 C0.86625 0.61875 1.7325 1.2375 2.625 1.875 C4.51789959 4.80039028 4.17669866 6.81309339 3.53515625 10.1640625 C2.8057616 12.66636531 2.29802876 13.6977837 0 15 C-3.0625 16.125 -3.0625 16.125 -7 16 C-9.71877508 14.42121763 -12.15687042 12.61647459 -14.66796875 10.7265625 C-20.7095176 6.25358999 -27.72950571 6.00777071 -35 7 C-42.51358323 9.54989962 -48.75047014 13.20356648 -53 20 C-53.40992188 20.63292969 -53.81984375 21.26585937 -54.2421875 21.91796875 C-58.37159956 29.50754333 -58.32921002 38.77132179 -56.234375 47.01171875 C-53.20721484 55.04810821 -48.75839649 60.24360691 -41 64 C-32.97044926 66.19741578 -22.11773448 66.43283257 -14.5 63 C-12.7675 62.01 -12.7675 62.01 -11 61 C-10.67 55.72 -10.34 50.44 -10 45 C-11.61390625 45.04640625 -13.2278125 45.0928125 -14.890625 45.140625 C-17.01039817 45.17814311 -19.13019134 45.21454322 -21.25 45.25 C-22.31347656 45.28351563 -23.37695312 45.31703125 -24.47265625 45.3515625 C-25.49746094 45.36445313 -26.52226562 45.37734375 -27.578125 45.390625 C-28.52075195 45.41157227 -29.46337891 45.43251953 -30.43457031 45.45410156 C-33.78658504 44.86076816 -34.93704379 43.65778908 -37 41 C-37.625 37.5625 -37.625 37.5625 -37 34 C-34.16016686 30.40982563 -32.43710428 29.20518855 -27.86914062 28.55297852 C-24.04658699 28.39817025 -20.26216598 28.41722317 -16.4375 28.5 C-14.46620117 28.49613281 -14.46620117 28.49613281 -12.45507812 28.4921875 C-0.39984659 28.61501207 -0.39984659 28.61501207 4.78759766 33.77978516 C6.43314565 36.79319906 6.38841288 39.09931257 6.3984375 42.5234375 C6.40230469 43.791875 6.40617187 45.0603125 6.41015625 46.3671875 C6.40387207 47.02557617 6.39758789 47.68396484 6.39111328 48.36230469 C6.37510989 50.36127414 6.39251841 52.3604193 6.41015625 54.359375 C6.40628906 55.63039063 6.40242188 56.90140625 6.3984375 58.2109375 C6.39505371 59.36899902 6.39166992 60.52706055 6.38818359 61.72021484 C5.86388023 66.15008363 4.44890703 69.58947462 1.23046875 72.72265625 C-12.34466171 81.62565768 -26.62981549 84.45211852 -42.52734375 81.30078125 C-54.38628745 77.68357448 -64.18619421 71.23779847 -70.25 60.25 C-76.19797206 47.04652753 -77.02871783 32.63428025 -72.26953125 18.9453125 C-66.53203769 5.63432744 -56.0599469 -2.63856288 -42.9296875 -8.01953125 C-27.33191558 -13.23958559 -12.77203715 -9.67818965 0 0 Z " fill="#FCFBFC" transform="translate(349,303)"/>
<path d="M0 0 C4.16625 -0.0825 8.3325 -0.165 12.625 -0.25 C13.92775879 -0.28641602 15.23051758 -0.32283203 16.57275391 -0.36035156 C27.19690713 -0.46233291 27.19690713 -0.46233291 32 4 C35.96312502 8.38029608 36.57731077 11.89620084 36.3203125 17.6015625 C35.68625333 22.34927387 33.97253234 25.10040758 30.5 28.3125 C26.64310225 30.91590598 23.78385456 31.12073023 19.23828125 31.09765625 C17.72681519 31.09390991 17.72681519 31.09390991 16.18481445 31.09008789 C14.2680188 31.07643188 14.2680188 31.07643188 12.3125 31.0625 C6.2178125 31.0315625 6.2178125 31.0315625 0 31 C0 20.77 0 10.54 0 0 Z " fill="#A066AA" transform="translate(110,311)"/>
</svg>
