<svg width="19" height="20" viewBox="0 0 19 20" fill="none" xmlns="http://www.w3.org/2000/svg">
<path d="M13.75 19V14.235C13.7497 14.026 13.7083 13.8192 13.628 13.6262C13.5477 13.4333 13.4302 13.2581 13.2822 13.1106C13.1341 12.9631 12.9585 12.8462 12.7652 12.7667C12.572 12.6872 12.365 12.6465 12.156 12.647H6.844C6.63503 12.6465 6.42801 12.6872 6.23477 12.7667C6.04153 12.8462 5.86586 12.9631 5.71782 13.1106C5.56978 13.2581 5.45226 13.4333 5.37199 13.6262C5.29171 13.8192 5.25026 14.026 5.25 14.235V19M13.75 1.28501V3.64701C13.7497 3.85598 13.7083 4.06285 13.628 4.25579C13.5477 4.44873 13.4302 4.62395 13.2822 4.77143C13.1341 4.91892 12.9585 5.03577 12.7652 5.11532C12.572 5.19486 12.365 5.23554 12.156 5.23501H6.844C6.63503 5.23554 6.42801 5.19486 6.23477 5.11532C6.04153 5.03577 5.86586 4.91892 5.71782 4.77143C5.56978 4.62395 5.45226 4.44873 5.37199 4.25579C5.29171 4.06285 5.25026 3.85598 5.25 3.64701V1.00001M13.75 1.28501C13.3353 1.09719 12.8853 1.00003 12.43 1.00001H5.25M13.75 1.28501C14.094 1.44101 14.411 1.65901 14.684 1.93001L17.066 4.30501C17.3618 4.59933 17.5965 4.94915 17.7568 5.3344C17.9171 5.71965 17.9997 6.13275 18 6.55001V15.822C17.9997 16.24 17.9171 16.6539 17.7567 17.0399C17.5963 17.426 17.3614 17.7766 17.0654 18.0718C16.7694 18.367 16.4181 18.6009 16.0316 18.7601C15.6451 18.9194 15.231 19.0009 14.813 19H4.188C3.76998 19.0011 3.35585 18.9197 2.9693 18.7605C2.58276 18.6014 2.23139 18.3676 1.93529 18.0725C1.63919 17.7774 1.40417 17.4269 1.24369 17.0409C1.0832 16.6549 1.00039 16.241 1 15.823V4.17601C1.00052 3.75807 1.08343 3.34433 1.24397 2.95846C1.40452 2.57258 1.63956 2.22214 1.93564 1.92716C2.23173 1.63219 2.58306 1.39848 2.96953 1.23939C3.35601 1.0803 3.77006 0.998958 4.188 1.00001H5.25" stroke="#082832" stroke-width="1.5" stroke-linecap="round" stroke-linejoin="round"/>
</svg>
