<svg width="26" height="28" viewBox="0 0 26 28" fill="none" xmlns="http://www.w3.org/2000/svg">
<path d="M2 7.51994H24.0798M10.2799 13.0399V21.3198M15.7999 13.0399V21.3198M3.37999 7.51994L4.75997 24.0798C4.75997 24.8118 5.05075 25.5138 5.56835 26.0314C6.08594 26.549 6.78795 26.8397 7.51994 26.8397H18.5598C19.2918 26.8397 19.9938 26.549 20.5114 26.0314C21.029 25.5138 21.3198 24.8118 21.3198 24.0798L22.6998 7.51994M8.89993 7.51994V3.37999C8.89993 3.01399 9.04532 2.66299 9.30412 2.40419C9.56291 2.14539 9.91392 2 10.2799 2H15.7999C16.1658 2 16.5169 2.14539 16.7757 2.40419C17.0344 2.66299 17.1798 3.01399 17.1798 3.37999V7.51994" stroke="#F28282" stroke-width="2.1518" stroke-linecap="round" stroke-linejoin="round"/>
</svg>
